# xmcd
#
# Track frame offsets:
#	150
#	13271
#	26323
#	38284
#	52158
#	67460
#	83131
#	95576
#	106823
#	117886
#
# Disc length: 1833 seconds
#
# Revision: 0
# Processed by: cddbd v1.5.1PL2 Copyright (c) Steve Scherf et al.
# Submitted via: EasyCDDAExtractor 4.6.9.1
#
DISCID=7d07270a
DTITLE=Jessie Colter - I'm Jessie Colter
DYEAR=1975
DGENRE=Country
TTITLE0=Is There Any Way
TTITLE1=I Hear a Song
TTITLE2=Come On In
TTITLE3=You Ain't Never Been Loved
TTITLE4=Love's The Only Chain
TTITLE5=I'm Not Lisa
TTITLE6=For The First Time
TTITLE7=Who Walks Thru Your Memory
TTITLE8=What's Happened To Blue Eyes
TTITLE9=Storms Never Last
EXTD=
EXTT0=
EXTT1=
EXTT2=
EXTT3=
EXTT4=
EXTT5=
EXTT6=
EXTT7=
EXTT8=
EXTT9=
PLAYORDER=
